# xmcd CD database file
#
# Track frame offsets:
#	150
#	10510
#	24207
#	37206
#	47771
#	63027
#	75365
#	91479
#	104546
#	115518
#	126792
#	139213
#	155801
#	168715
#	181874
#	193552
#
# Disc length: 2737 seconds
#
# Revision: 3
# Processed by: cddbd v1.5.2PL0 Copyright (c) Steve Scherf et al.
# Submitted via: CDex 1.51
#
DISCID=c80aaf10
DTITLE=Country - Kocabka naram... nych pisnicek 2
DYEAR=1900
DGENRE=Country
TTITLE0=Ruze s papiru
TTITLE1=Na ceste (On the road)
TTITLE2=Jaro
TTITLE3=Amazonka
TTITLE4=Pole s bavlnou
TTITLE5=Bodlaky ve vlasech
TTITLE6=Podvod
TTITLE7=Billy Spunt
TTITLE8=Pulnocni pribeh
TTITLE9=Dotek
TTITLE10=Vlacek
TTITLE11=Na co ted myslis
TTITLE12=Agnes
TTITLE13=Mississippi blues
TTITLE14=Holka, ty me nezmenis
TTITLE15=Kocabka (Stara archa)
EXTD=
EXTT0=
EXTT1=
EXTT2=
EXTT3=
EXTT4=
EXTT5=
EXTT6=
EXTT7=
EXTT8=
EXTT9=
EXTT10=
EXTT11=
EXTT12=
EXTT13=
EXTT14=
EXTT15=
PLAYORDER=
